<svg id="Capa_1" enable-background="new 0 0 512 512" height="512" viewBox="0 0 512 512" width="512" xmlns="http://www.w3.org/2000/svg"><g><path d="m256 195c-24.813 0-45 20.187-45 45h30c0-8.271 6.729-15 15-15s15 6.729 15 15c0 5.34-2.878 10.323-7.511 13.002-13.872 8.025-22.489 22.958-22.489 38.971v23.027h30v-23.027c0-5.34 2.878-10.323 7.511-13.003 13.872-8.024 22.489-22.957 22.489-38.97 0-24.813-20.187-45-45-45z"/><path d="m241 345h30v30h-30z"/><path d="m481.643 212.459c-6.559-118.254-105.253-212.459-225.643-212.459s-219.084 94.205-225.643 212.459c-17.644 6.091-30.357 22.854-30.357 42.541v60c0 24.813 20.187 45 45 45h64.052c27.356 53.382 82.956 90 146.948 90s119.592-36.618 146.948-90h49.052v17c0 57.897-47.103 105-105 105h-106v30h106c74.439 0 135-60.561 135-135v-19.58c17.459-6.192 30-22.865 30-42.42v-60c0-19.687-12.713-36.45-30.357-42.541zm-225.643-182.459c103.003 0 187.702 79.458 195.426 180h-48.478c-27.356-53.382-82.956-90-146.948-90s-119.592 36.618-146.948 90h-48.478c7.724-100.542 92.423-180 195.426-180zm-165 300h-46c-8.271 0-15-6.729-15-15v-60c0-8.271 6.729-15 15-15h46zm165 90c-74.439 0-135-60.561-135-135s60.561-135 135-135 135 60.561 135 135-60.561 135-135 135zm226-105c0 8.271-6.729 15-15 15h-46v-90h46c8.271 0 15 6.729 15 15z"/></g></svg>