<svg height="430pt" viewBox="-64 0 430 430" width="430pt" xmlns="http://www.w3.org/2000/svg"><path d="m230.5 122.199219h71.699219v267.800781c.007812 22.09375-17.90625 40.007812-40 40h-222.199219c-22.09375.007812-40.0078125-17.90625-40-40v-267.800781zm0 0" fill="#e48e66"/><path d="m142.101562 122.199219h-142.101562v267.800781c-.0078125 22.09375 17.90625 40.007812 40 40h102.101562zm0 0" fill="#d18162"/><path d="m153.699219 0c-47.910157.0625-86.738281 38.886719-86.800781 86.800781v86c0 5.523438 4.480468 10 10 10 5.523437 0 10-4.476562 10-10v-86c.027343-36.921875 29.980468-66.828125 66.902343-66.800781 36.917969.027344 66.828125 29.980469 66.800781 66.898438v86c0 5.523437 4.476563 10 10 10 5.519532 0 10-4.476563 10-10v-86c.003907-47.992188-38.90625-86.90234425-86.902343-86.898438zm0 0" fill="#63316d"/></svg>