<?xml version="1.0" standalone="no"?>
<!DOCTYPE svg PUBLIC "-//W3C//DTD SVG 20010904//EN"
 "http://www.w3.org/TR/2001/REC-SVG-20010904/DTD/svg10.dtd">
<svg version="1.0" xmlns="http://www.w3.org/2000/svg"
 width="1280.000000pt" height="1170.000000pt" viewBox="0 0 1280.000000 1170.000000"
 preserveAspectRatio="xMidYMid meet">
<metadata>
Created by potrace 1.15, written by Peter Selinger 2001-2017
</metadata>
<g transform="translate(0.000000,1170.000000) scale(0.100000,-0.100000)"
fill="#000000" stroke="none">
<path d="M5950 11648 c-16 -29 -83 -145 -149 -258 l-119 -205 -211 -3 -211 -2
0 -44 c0 -100 49 -298 110 -441 12 -30 -12 -72 -1370 -2425 -761 -1317 -1387
-2399 -1392 -2405 -5 -6 -316 298 -796 778 l-787 787 -504 -504 c-344 -344
-505 -512 -507 -528 -2 -18 180 -205 914 -940 l917 -918 -17 -27 c-9 -16 -359
-622 -778 -1348 -419 -726 -776 -1342 -792 -1369 -28 -47 -29 -50 -12 -63 10
-7 21 -13 25 -13 9 0 197 203 341 366 161 185 318 381 583 729 313 411 404
514 507 571 44 24 65 29 123 29 63 0 77 -4 140 -38 l69 -39 24 29 c39 47 255
372 316 476 32 53 61 97 65 97 3 0 893 -887 1976 -1970 1083 -1084 1977 -1970
1985 -1970 8 0 902 886 1985 1970 1083 1084 1973 1970 1976 1970 4 0 26 -33
49 -73 51 -86 299 -460 332 -500 l24 -29 69 39 c63 34 77 38 140 38 155 -1
226 -69 662 -640 254 -333 446 -571 602 -745 141 -158 284 -310 291 -310 3 0
14 6 24 13 15 11 -56 138 -775 1382 -435 754 -798 1383 -806 1399 l-15 29 921
921 c507 507 921 926 921 931 0 6 -230 240 -510 520 l-510 510 -789 -789 -788
-788 -35 58 c-20 33 -431 743 -913 1579 -483 836 -1102 1908 -1376 2383 l-499
862 20 50 c38 97 65 229 72 350 l3 45 -179 5 -178 5 -147 254 c-81 140 -153
257 -159 259 -7 2 -102 -48 -212 -112 l-199 -116 -200 115 c-109 63 -204 115
-210 115 -6 0 -24 -24 -41 -52z m990 -2956 l536 -927 89 -12 c287 -40 546
-190 821 -474 338 -351 640 -821 1154 -1798 l102 -195 -1109 -1105 c-609 -608
-1339 -1335 -1621 -1616 l-512 -510 -1615 1615 c-888 888 -1615 1620 -1615
1626 0 6 61 128 136 270 491 933 796 1398 1143 1745 271 270 507 403 786 442
l89 12 536 927 c294 510 537 928 540 928 3 0 246 -418 540 -928z"/>
</g>
</svg>
