<svg xmlns="http://www.w3.org/2000/svg" xmlns:xlink="http://www.w3.org/1999/xlink" viewBox="0 0 367.66 286.2"><defs><style>.cls-1{fill:url(#Nueva_muestra_de_degradado_1);}</style><linearGradient id="Nueva_muestra_de_degradado_1" x1="110.85" y1="133.61" x2="256.87" y2="133.61" gradientUnits="userSpaceOnUse"><stop offset="0" stop-color="#283481"/><stop offset="1" stop-color="#6fc7da"/></linearGradient></defs><title>Logo sub- Rejos Style</title><g id="Capa_2" data-name="Capa 2"><path class="cls-1" d="M174,132.93l-15.05-19.39a26.51,26.51,0,0,1-5.6-17.76c.49-8.39,3.75-19.3,16-25.95s28.68-4.37,37.55,7c2.54,3.26,4.85,6.59,8.23,9.08,8.15,6,20.16,3.84,21.47-7.22C238.34,63.38,222.47,49,210,43.05c-10.18-4.86-21-5.83-32.08-4.43-6.46.82-13.68,1.48-19.48,4.83C149,48.09,139.7,55.34,134.06,64.2a54.5,54.5,0,0,0-7.36,21.49,69.61,69.61,0,0,0-.38,7.07c-.14,8-.22,16,2.65,23.59a64.76,64.76,0,0,0,12.37,19.93,9.48,9.48,0,0,1,2.2,4.13c.69,3,.74,7.51-5,8a12.43,12.43,0,0,1-10.41-4.49c-4.57-5.37-12.41-16.74-16.1-34.81-5.38-26.33,9-50.39,9-50.43,9.6-16.11,26.32-29,44.93-32,29.88-5,60.37,4,78.87,29.1,7.5,10.19,9.9,27.64.71,37.75a24.64,24.64,0,0,1-9.46,6.24c-19.78,7.6-29.61-3.41-29.61-3.41l-10-10.82a16.18,16.18,0,0,0-13-5.25c-5.71.39-12.52,2.63-14.88,10.65A17.19,17.19,0,0,0,172,106.51l11.3,13.84,5.52-5.93c2.53-2.72,4.78-6.08,8.26-7.7,2.88-1.34,6.73-1.12,8.74,1.34,2.72,3.3,1.11,8.52-1.55,11.33l-11.13,12,15.28,19.81s14.19,17.61-3.44,39.48C193.41,205,178.1,200,169,194.8a32,32,0,0,1-10.12-9.05c-3.47-4.76-10.73-12-20.72-7.43-14.29,6.53-3.39,24.13-3.39,24.13s16.37,23.1,38.31,24.29,31.83-3.17,31.83-3.17,29.66-8.67,36.37-41.55c5.31-26-8-44.59-13.74-51.18a12.1,12.1,0,0,1-3-9.37c.47-3.78,2.75-7.2,10.43-4.21,14.24,5.54,20.69,38.44,20.7,38.48,6.95,35.43-15.6,70.59-49.28,82.23-26.67,9.23-57.06,2.06-76-19.08-10.59-11.79-20.94-31.71-9.55-46.5,3.76-4.88,9.38-7.89,15.25-9.43,8.29-2.18,18.39-.49,25.14,5,2.59,2.11,4.14,4.85,6.1,7.47a31.8,31.8,0,0,0,6.24,6.13c4.75,3.58,10.64,5.18,16.2,2.43,7.7-3.81,9.64-9.56,9.66-14.36A18,18,0,0,0,194.92,158l-10.59-12.45c-2,2.22-4.07,4.46-6.17,6.62-1.94,2-3.54,4.5-5.86,6.12-1.85,1.29-5,1.25-7.1.8a5.93,5.93,0,0,1-4.25-3,7.5,7.5,0,0,1-.4-3.85c.47-4.64,4.58-8.26,7.39-11.77Z"/></g></svg>