<svg id="Capa_1" data-name="Capa 1" xmlns="http://www.w3.org/2000/svg" xmlns:xlink="http://www.w3.org/1999/xlink" viewBox="0 0 259.31 497.06"><defs><style>.cls-1,.cls-10,.cls-2,.cls-3,.cls-4,.cls-6,.cls-7,.cls-8,.cls-9{stroke:#020101;stroke-miterlimit:10;}.cls-1{fill:url(#Degradado_sin_nombre_190);}.cls-2{fill:none;}.cls-2,.cls-3,.cls-4,.cls-7,.cls-8{stroke-width:0.5px;}.cls-3{fill:url(#Nueva_muestra_de_degradado_2);}.cls-4{fill:url(#Nueva_muestra_de_degradado_1);}.cls-5,.cls-6,.cls-7{fill:#ebedda;}.cls-8{fill:#cdcec4;}.cls-9{fill:#010101;}.cls-10{fill:#0c0a0b;}</style><linearGradient id="Degradado_sin_nombre_190" x1="111.59" y1="125.08" x2="219.34" y2="125.08" gradientUnits="userSpaceOnUse"><stop offset="0" stop-color="#205627"/><stop offset="1" stop-color="#3c3289"/></linearGradient><linearGradient id="Nueva_muestra_de_degradado_2" x1="98.44" y1="39.17" x2="163.25" y2="39.17" gradientUnits="userSpaceOnUse"><stop offset="0" stop-color="#d04592"/><stop offset="1" stop-color="#30358c"/></linearGradient><linearGradient id="Nueva_muestra_de_degradado_1" x1="14.99" y1="96.03" x2="77.96" y2="96.03" gradientUnits="userSpaceOnUse"><stop offset="0" stop-color="#283481"/><stop offset="1" stop-color="#6fc7da"/></linearGradient></defs><title>Logo - Rejos Style</title><circle class="cls-1" cx="165.46" cy="125.08" r="53.88"/><path class="cls-2" d="M458,163.45s8.56,2.45,6.12,11" transform="translate(-260.31 -40.69)"/><path class="cls-2" d="M469.58,158.56s-3.67-.61-3.06,3.06S474.47,161.62,469.58,158.56Z" transform="translate(-260.31 -40.69)"/><path class="cls-2" d="M445.74,147s-6.73,6.11,3.05,12.22" transform="translate(-260.31 -40.69)"/><path class="cls-2" d="M454.91,143.89s14.06,0,6.72,11.62" transform="translate(-260.31 -40.69)"/><path class="cls-2" d="M451.85,148.17s-6.11,4.28,0,6.72S457.35,145.72,451.85,148.17Z" transform="translate(-260.31 -40.69)"/><path class="cls-2" d="M416.39,166.51s8.56,0,11.62-9.78" transform="translate(-260.31 -40.69)"/><path class="cls-2" d="M432.9,143.28s-2.45,3.05,1.22,3.05S435.34,140.83,432.9,143.28Z" transform="translate(-260.31 -40.69)"/><path class="cls-2" d="M448.79,131.66s-3.67,3.06.61,4.89S451.85,130.44,448.79,131.66Z" transform="translate(-260.31 -40.69)"/><path class="cls-2" d="M437.79,122.49s5.5,3.67,1.22,14.67" transform="translate(-260.31 -40.69)"/><path class="cls-2" d="M418.22,124.94s-6.72,4.89-.61,12.84" transform="translate(-260.31 -40.69)"/><path class="cls-2" d="M426.78,126.77s-6.72,4.28.61,7.34S435.34,123.1,426.78,126.77Z" transform="translate(-260.31 -40.69)"/><path class="cls-2" d="M404.16,145.72s2.45-2.44,15.29-1.83" transform="translate(-260.31 -40.69)"/><path class="cls-2" d="M396.83,156.12s.61,11,11,9.78" transform="translate(-260.31 -40.69)"/><path class="cls-2" d="M404.77,152.45s-6.72,9.78,8,9.78S418.22,137.78,404.77,152.45Z" transform="translate(-260.31 -40.69)"/><path class="cls-2" d="M385.21,148.17s4.89-1.84,3.67,2.44S382.15,151.23,385.21,148.17Z" transform="translate(-260.31 -40.69)"/><path class="cls-2" d="M386.43,175.68s3.06-3.06,4.89.61S385.82,181.18,386.43,175.68Z" transform="translate(-260.31 -40.69)"/><path class="cls-2" d="M431.06,180s-3.05-.61-1.83,3.06S437.79,181.79,431.06,180Z" transform="translate(-260.31 -40.69)"/><path class="cls-2" d="M408.44,173.23c-.58.2-2.44,3.06.61,3.67S412.11,172,408.44,173.23Z" transform="translate(-260.31 -40.69)"/><path class="cls-2" d="M451.24,175.68h6.11s1.22-1.22,1.22-4.89-6.11-1.83-6.72,0A19.68,19.68,0,0,0,451.24,175.68Z" transform="translate(-260.31 -40.69)"/><path class="cls-2" d="M384,183.63s5.5,8,11-2.45" transform="translate(-260.31 -40.69)"/><path class="cls-2" d="M382.15,173.23s3.67-7.33,11.62-1.22" transform="translate(-260.31 -40.69)"/><path class="cls-2" d="M432.29,174.46s10.39.61,7.33,9.17" transform="translate(-260.31 -40.69)"/><path class="cls-2" d="M447.57,168.34s-5.5,8.56,1.83,9.79" transform="translate(-260.31 -40.69)"/><line class="cls-2" x1="92.33" y1="100.92" x2="92.33" y2="115.59"/><line class="cls-2" x1="94.16" y1="118.04" x2="105.78" y2="118.04"/><line class="cls-2" x1="92.33" y1="120.48" x2="92.33" y2="136.99"/><line class="cls-2" x1="78.27" y1="118.04" x2="90.49" y2="118.04"/><circle class="cls-2" cx="104.25" cy="94.5" r="1.53"/><circle class="cls-2" cx="108.22" cy="85.02" r="1.83"/><circle class="cls-2" cx="98.75" cy="87.78" r="2.14"/><line class="cls-2" x1="187.7" y1="40.39" x2="187.09" y2="51.4"/><line class="cls-2" x1="187.7" y1="54.46" x2="198.71" y2="55.07"/><line class="cls-2" x1="185.26" y1="56.9" x2="185.26" y2="67.29"/><line class="cls-2" x1="172.42" y1="53.23" x2="185.26" y2="53.23"/><line class="cls-2" x1="191.37" y1="40.39" x2="201.76" y2="42.23"/><line class="cls-2" x1="204.82" y1="27.56" x2="204.82" y2="37.34"/><line class="cls-2" x1="210.94" y1="42.84" x2="222.55" y2="42.84"/><line class="cls-2" x1="204.21" y1="46.51" x2="204.21" y2="58.12"/><line class="cls-2" x1="53.2" y1="20.22" x2="53.2" y2="39.78"/><line class="cls-2" x1="52.59" y1="42.23" x2="52.59" y2="61.18"/><line class="cls-2" x1="56.26" y1="41.01" x2="72.15" y2="41.01"/><line class="cls-2" x1="34.25" y1="39.17" x2="50.76" y2="39.17"/><line class="cls-2" x1="73.99" y1="0.04" x2="72.15" y2="10.44"/><line class="cls-2" x1="71.54" y1="12.88" x2="69.1" y2="26.94"/><line class="cls-2" x1="74.6" y1="12.27" x2="88.66" y2="13.49"/><line class="cls-2" x1="55.04" y1="9.83" x2="69.71" y2="11.05"/><circle class="cls-2" cx="33.64" cy="18.38" r="1.22"/><circle class="cls-2" cx="34.55" cy="26.03" r="1.53"/><circle class="cls-2" cx="27.52" cy="23.28" r="1.83"/><circle class="cls-2" cx="169.06" cy="18.08" r="1.53"/><circle class="cls-2" cx="175.17" cy="14.41" r="1.53"/><circle class="cls-2" cx="177" cy="23.58" r="2.14"/><circle class="cls-3" cx="130.85" cy="39.17" r="32.4"/><path class="cls-2" d="M376.33,51s9.32,1.31,9.93,3.76" transform="translate(-260.31 -40.69)"/><path class="cls-2" d="M403.38,53.58s2.84-1.81,5.4-.91" transform="translate(-260.31 -40.69)"/><path class="cls-2" d="M412.55,67s4.06,4,9.37,2.63" transform="translate(-260.31 -40.69)"/><path class="cls-2" d="M402.16,59.69s6.11-1.22,9.17,3.67" transform="translate(-260.31 -40.69)"/><path class="cls-2" d="M394.82,61.52s6.12-1.83,8.56,1.23" transform="translate(-260.31 -40.69)"/><path class="cls-2" d="M399.1,65.8s3.67,2.45,11,1.84" transform="translate(-260.31 -40.69)"/><path class="cls-2" d="M398.49,73.75s7.95,1.22,10.39.61" transform="translate(-260.31 -40.69)"/><path class="cls-2" d="M404.6,74.53s-.61,4.11,4.9,3.5" transform="translate(-260.31 -40.69)"/><path class="cls-2" d="M411.33,81.7s5.5-1.84,7.34,1.22" transform="translate(-260.31 -40.69)"/><path class="cls-2" d="M383.21,74.36s6.11,2.45,9.17,2.45" transform="translate(-260.31 -40.69)"/><path class="cls-2" d="M389.93,97.59c0,.62,9.17.62,13.45-1.22" transform="translate(-260.31 -40.69)"/><path class="cls-2" d="M398.49,95.15s7.95,2.44,11.62,1.83" transform="translate(-260.31 -40.69)"/><line class="cls-2" x1="124.12" y1="53.23" x2="131.46" y2="53.84"/><path class="cls-2" d="M388.1,92.09s4.89-.61,7.33,2.45" transform="translate(-260.31 -40.69)"/><path class="cls-2" d="M387.49,88.42c.61,0,6.11.62,6.11.62" transform="translate(-260.31 -40.69)"/><line class="cls-2" x1="135.74" y1="50.18" x2="141.85" y2="50.18"/><line class="cls-2" x1="141.85" y1="52.62" x2="147.35" y2="52.01"/><line class="cls-2" x1="144.91" y1="48.95" x2="150.41" y2="49.56"/><circle class="cls-2" cx="151.02" cy="47.73" r="1.22"/><circle class="cls-2" cx="150.1" cy="44.37" r="1.22"/><circle class="cls-2" cx="146.44" cy="43.76" r="1.22"/><circle class="cls-2" cx="137.26" cy="42.53" r="1.22"/><circle class="cls-2" cx="134.21" cy="40.09" r="1.22"/><circle class="cls-2" cx="122.59" cy="40.09" r="1.22"/><circle class="cls-2" cx="124.43" cy="43.15" r="1.22"/><circle class="cls-2" cx="123.2" cy="59.65" r="1.22"/><circle class="cls-2" cx="116.48" cy="59.65" r="1.22"/><circle class="cls-2" cx="132.37" cy="60.26" r="1.22"/><circle class="cls-2" cx="126.87" cy="63.32" r="1.22"/><circle class="cls-2" cx="133.6" cy="63.93" r="1.22"/><circle class="cls-2" cx="141.54" cy="61.49" r="1.22"/><path class="cls-2" d="M397,78.34s2.45,3,5.5,1.83" transform="translate(-260.31 -40.69)"/><path class="cls-2" d="M359.06,86.9s8.56-1.84,20.17,1.22" transform="translate(-260.31 -40.69)"/><line class="cls-2" x1="102.27" y1="54.46" x2="120.15" y2="54.15"/><path class="cls-2" d="M376.79,90.56c0,.62,4.28.62,4.28.62" transform="translate(-260.31 -40.69)"/><path class="cls-2" d="M367,90c.61.61,5.5,2.45,5.5,2.45" transform="translate(-260.31 -40.69)"/><path class="cls-2" d="M369.45,71.61s3.67,3.06,9.78,1.22" transform="translate(-260.31 -40.69)"/><path class="cls-2" d="M382.9,71s5.5,0,7.34,1.22" transform="translate(-260.31 -40.69)"/><path class="cls-2" d="M388.4,68.55s4.89-.61,6.12,1.23" transform="translate(-260.31 -40.69)"/><path class="cls-2" d="M386,60a11.26,11.26,0,0,0,6.72,3.66" transform="translate(-260.31 -40.69)"/><path class="cls-2" d="M390.24,56.33" transform="translate(-260.31 -40.69)"/><path class="cls-2" d="M390.24,56.33c.61.61,5.5,0,6.11,1.83" transform="translate(-260.31 -40.69)"/><path class="cls-2" d="M381.68,55.1c0,.62,3.67,1.23,6.11,3.06" transform="translate(-260.31 -40.69)"/><path class="cls-2" d="M372.21,53.58s8.25,2.14,10.08,4.58" transform="translate(-260.31 -40.69)"/><path class="cls-2" d="M367,61.83s7.33,1.22,8.55,3.06" transform="translate(-260.31 -40.69)"/><path class="cls-2" d="M379.84,65.5a10.65,10.65,0,0,0,4.28.61" transform="translate(-260.31 -40.69)"/><path class="cls-2" d="M367.62,66.72s3.66,1.83,4.89,1.83" transform="translate(-260.31 -40.69)"/><path class="cls-2" d="M375.56,67.94c.62,0,2.45-.61,3.06.61" transform="translate(-260.31 -40.69)"/><path class="cls-2" d="M360.89,69.17s.61.61,3.67.61" transform="translate(-260.31 -40.69)"/><circle class="cls-4" cx="46.48" cy="96.03" r="31.49"/><path class="cls-2" d="M275.3,141.31s-15.9,3.05-14.67,18.95,25.9.56,25.9.56,67-37.24,63.36-47.64-13.75-7.19-25.22-2.37" transform="translate(-260.31 -40.69)"/><path class="cls-2" d="M330,115.49s7-2.92,4.57,3.2S279,154.15,279,154.15s-7.34,2.44-8.56-1.84,6.13-6.81,6.13-6.81" transform="translate(-260.31 -40.69)"/><line class="cls-2" x1="18.16" y1="82.25" x2="44.07" y2="64.54"/><path class="cls-2" d="M287.53,120.52s20.14-13.92,21.38-15.21" transform="translate(-260.31 -40.69)"/><path class="cls-2" d="M293.64,120.52s19.56-12.84,20.18-14.67" transform="translate(-260.31 -40.69)"/><line class="cls-2" x1="35.78" y1="84.11" x2="59.07" y2="67.16"/><line class="cls-2" x1="39.44" y1="85.94" x2="62.61" y2="68.99"/><line class="cls-2" x1="47.39" y1="84.72" x2="65.73" y2="71.27"/><line class="cls-2" x1="51.67" y1="86.55" x2="68.79" y2="74.33"/><line class="cls-2" x1="48.62" y1="93.28" x2="71.32" y2="76.68"/><line class="cls-2" x1="56.56" y1="105.51" x2="77.17" y2="89.01"/><line class="cls-2" x1="58.4" y1="107.34" x2="77.96" y2="94.12"/><line class="cls-2" x1="60.23" y1="112.84" x2="77.75" y2="99.65"/><line class="cls-2" x1="60.84" y1="116.51" x2="76.43" y2="105.74"/><path class="cls-5" d="M450.76,244l1.7-6.1-2.12,98.52s-16.94,29.14-20,30.83c0,0-1.87,3.22-9.66,7.29l-50-38.8-.51-4.58V331l.17-.5-.67-.34-1.53,3.39-18.28-14.28s18.2.47,34.12-8.51a244.58,244.58,0,0,1,26.09-13s4.92,0,16.78-9.32A111.92,111.92,0,0,0,445,270.89a7.69,7.69,0,0,0,1.53-2.88c.68-2,2-6.94,2-6.94l2.2-13,.51-4.06Z" transform="translate(-260.31 -40.69)"/><polyline class="cls-6" points="218.83 379.38 232.22 383.61 234.08 389.37 234.25 391.74 218.83 379.38"/><path class="cls-5" d="M461.93,203l-8,29.34s2,7.17,8.64,7.17Z" transform="translate(-260.31 -40.69)"/><path class="cls-7" d="M350.06,319.22s-3.37,49.82-71.84,65.72a40.42,40.42,0,0,1,.31,19.26,77.78,77.78,0,0,0-1.84,20.17s1.22,17.12,8.56,25.68,3.67,20.18,3.67,20.18L317,508.74l15.9,2.45,5.64,13.7s6,2.19,10.86.36,17.12,5.5,17.12,5.5l20.79-10.39S397.74,538.7,410,535l9.17,2.45,37.91-36.07s11,.61,14.06,1.83,10.39-6.72,10.39-6.72-5.5-4.28-1.22-9.79a15.44,15.44,0,0,0,3.06-11.61l10.39,3.05,11.62-17.11L498.62,425h-4.28l1.22,12.22h5.51" transform="translate(-260.31 -40.69)"/><path class="cls-7" d="M452.6,227.51c1.22,12.84,9.78,12.23,9.78,12.23v15.89l-3.67,70.92s-6.72,17.12-8.56,18.35" transform="translate(-260.31 -40.69)"/><path class="cls-7" d="M505.23,461h3.67s7.34-20.17,9.78-21.39-2.44-62.36-2.44-62.36-49.52-16.51-57.47-50.75" transform="translate(-260.31 -40.69)"/><path class="cls-7" d="M462.45,239.72s10.32,4.3,14.6-16.49c0,0,9.78-7.33,12.84-17.12s5.5-17.12,4.89-26.9-15.28-7.94-15.28-7.94-14.68,14.06-17.73,23.84" transform="translate(-260.31 -40.69)"/><path class="cls-5" d="M460.61,334l3.62,6.22L508.62,447l-7.48-1.93s.12-7-4.78-20.05l-1.29.21s5.42,16.51,4.9,19.52l-14.71-3.86-37.68-24.66,1-.65-.77-.85-1.55.85-34.07-22.3s1-.43,7.49-4.29,15.74-15,15.74-15l6.45-8.36,10.58-15.87Z" transform="translate(-260.31 -40.69)"/><path class="cls-7" d="M466.41,186.41l-10.14-6L433,193.89l-23.23-9.17-17.12,17.11H381.07L371.9,215.9l-15.29-9.18-3.67-15.28-12.22.61v-7.33L323,176.16,307.7,184.1,301,177.38l-12.23.61s-3.67,47.69,6.72,74.59,17.12,44.63,17.12,44.63,10.4,21.4,31.79,22a85.25,85.25,0,0,0,37.91-8s22-12.84,30-14.67,30.57-20.79,33.62-28.13S450.76,244,450.76,244" transform="translate(-260.31 -40.69)"/><path class="cls-7" d="M370.06,330.22s-4.89,9.78-2.44,11.62,6.11.61,6.72,4.28,0,12.23,0,12.23" transform="translate(-260.31 -40.69)"/><path class="cls-7" d="M438.54,200.61s-12.23,28.74-26.29,36.68" transform="translate(-260.31 -40.69)"/><path class="cls-7" d="M467.27,195.72s8.56-14.06,15.9-9.78a9.31,9.31,0,0,1,4.28,11.61,39.62,39.62,0,0,1-14.07,15.9c-9.78,6.11-7.94,11.62-7.94,11.62" transform="translate(-260.31 -40.69)"/><path class="cls-7" d="M466.05,205.5c0,.61,7.14-1.85,10,6.11" transform="translate(-260.31 -40.69)"/><polyline class="cls-7" points="85.91 408.13 84.69 413.03 70.63 439.31 72.73 470.02 81.63 446.65 89.58 439.31"/><line class="cls-7" x1="81.63" y1="446.65" x2="80.41" y2="434.42"/><line class="cls-7" x1="112.2" y1="426.48" x2="110.98" y2="462.55"/><path class="cls-7" d="M290,394.42s15.9,11.61,32.41,15.28,37.29,7.95,37.29,7.95,11.61,3.67,11.61,11" transform="translate(-260.31 -40.69)"/><path class="cls-7" d="M452.6,398.08s-8,5.51-24.46,9.18-32.4,11.61-32.4,11.61-11.62,3.67-11.62,11" transform="translate(-260.31 -40.69)"/><path class="cls-7" d="M320.54,399.31s22.62,8.56,39.74,12.84" transform="translate(-260.31 -40.69)"/><path class="cls-7" d="M396.35,409.7s36.07-9.17,37.29-10.39" transform="translate(-260.31 -40.69)"/><path class="cls-7" d="M323.6,184.72s-8,18.95-13.45,26.28,19,19.57,19,19.57" transform="translate(-260.31 -40.69)"/><path class="cls-7" d="M316.26,215.9s7.95,3.66,11,0" transform="translate(-260.31 -40.69)"/><path class="cls-8" d="M327.57,224.76s9.17-10.39,17.73-7.95c0,0,2.45,3.67-3.06,5.5S327.57,224.76,327.57,224.76Z" transform="translate(-260.31 -40.69)"/><path class="cls-7" d="M346.83,226.9s8.56-4.28,7.34-12.23" transform="translate(-260.31 -40.69)"/><line class="cls-7" x1="65.85" y1="188.3" x2="65.73" y2="197.21"/><line class="cls-7" x1="70.01" y1="194.77" x2="69.4" y2="202.1"/><path class="cls-7" d="M310.76,259.91s6.72-3.66,11-3.05,5.51,2.44,8.56,1.83,12.84-4.28,18.34-3.06,10.4,3.67,14.07,1.84a84.47,84.47,0,0,1,9.17-3.67" transform="translate(-260.31 -40.69)"/><path class="cls-7" d="M325.13,270a75.56,75.56,0,0,0,15.89.61,7.82,7.82,0,0,1-7.33,3.06,67,67,0,0,0-7.34-.61Z" transform="translate(-260.31 -40.69)"/><line class="cls-7" x1="211.24" y1="151.97" x2="217.97" y2="144.63"/><line class="cls-7" x1="211.24" y1="155.64" x2="220.65" y2="144.43"/><line class="cls-7" x1="211.24" y1="160.53" x2="222.86" y2="145.24"/><line class="cls-7" x1="212.46" y1="161.75" x2="225" y2="146.83"/><line class="cls-7" x1="214.3" y1="163.59" x2="227.01" y2="149.63"/><line class="cls-7" x1="220.41" y1="159.92" x2="227.77" y2="152.3"/><path class="cls-9" d="M376.54,409.6l-1.93-2.29a3.23,3.23,0,0,1-.76-2.14,3.68,3.68,0,0,1,1.82-3.25,3.63,3.63,0,0,1,4.61.68,5.33,5.33,0,0,0,1.05,1.07c1,.7,2.48.38,2.59-1,.15-1.88-1.86-3.56-3.41-4.23a6.89,6.89,0,0,0-3.94-.38,6.24,6.24,0,0,0-2.35.68,7.52,7.52,0,0,0-2.87,2.64,6.58,6.58,0,0,0-.8,2.66,8.26,8.26,0,0,0,0,.86,7.73,7.73,0,0,0,.43,2.87,7.83,7.83,0,0,0,1.61,2.37,1.18,1.18,0,0,1,.28.5c.1.36.13.91-.56,1a1.52,1.52,0,0,1-1.3-.49,9.52,9.52,0,0,1-2.12-4.17,9.69,9.69,0,0,1,.85-6.2,8.2,8.2,0,0,1,5.33-4.12,9.68,9.68,0,0,1,9.76,3.17c1,1.21,1.34,3.33.27,4.61a2.92,2.92,0,0,1-1.13.8c-2.38,1-3.63-.27-3.63-.27l-1.26-1.28a2,2,0,0,0-1.61-.57,1.85,1.85,0,0,0-1.77,1.37,2.09,2.09,0,0,0,.49,1.89l1.44,1.63.65-.75a3.77,3.77,0,0,1,1-1,.91.91,0,0,1,1.07.12,1.11,1.11,0,0,1-.13,1.39l-1.3,1.52,1.95,2.34s1.82,2.08-.23,4.84c-1.35,1.8-3.24,1.26-4.38.67a3.91,3.91,0,0,1-1.27-1.05,2,2,0,0,0-2.57-.81c-1.71.86-.3,3-.3,3s2.11,2.74,4.79,2.78a9.34,9.34,0,0,0,3.87-.54,6.81,6.81,0,0,0,4.24-5.24,7.26,7.26,0,0,0-1.92-6.18,1.47,1.47,0,0,1-.41-1.13c0-.46.3-.89,1.25-.56,1.77.61,2.71,4.59,2.71,4.6A9,9,0,0,1,381,422.26a8.71,8.71,0,0,1-9.37-2c-1.35-1.39-2.71-3.77-1.39-5.62a3.42,3.42,0,0,1,1.82-1.23,3.61,3.61,0,0,1,3.09.5,4.36,4.36,0,0,1,.78.88,3.87,3.87,0,0,0,.79.72,1.93,1.93,0,0,0,3.1-1.58,2.24,2.24,0,0,0-.59-1.4l-1.35-1.46c-.24.28-.48.56-.73.83a5.07,5.07,0,0,1-.68.78,1.28,1.28,0,0,1-.86.13.76.76,0,0,1-.54-.35A.94.94,0,0,1,375,412c0-.57.52-1,.84-1.47Z" transform="translate(-260.31 -40.69)"/><path class="cls-10" d="M345.84,333.41s-2.4,25.84,2.51,32.28S378,387,378,387s40.66-7.28,50.82-18.13,29.82-47.09,29.82-47.09-.67,8,2.29,11.6c0,0-8.56,24-23.47,40.58S377.32,398,377.32,398,346,383,340.39,375s-1.56-27.66-1.56-27.66S345.71,337.4,345.84,333.41Z" transform="translate(-260.31 -40.69)"/></svg>